<svg width="24" height="24" viewBox="0 0 24 24" fill="none" xmlns="http://www.w3.org/2000/svg">
  <path
    fill-rule="evenodd"
    clip-rule="evenodd"
    d="M20 12C20 7.58172 16.4183 4 12 4C7.58172 4 4 7.58172 4 12C4 16.4183 7.58172 20 12 20C16.4183 20 20 16.4183 20 12ZM8.56347 8.56354C8.212 8.91501 8.212 9.48486 8.56347 9.83633L10.7271 12L8.56348 14.1636C8.212 14.515 8.212 15.0849 8.56347 15.4364C8.91494 15.7878 9.48479 15.7878 9.83626 15.4364L11.9999 13.2727L14.1636 15.4364C14.5151 15.7878 15.0849 15.7878 15.4364 15.4364C15.7879 15.0849 15.7879 14.515 15.4364 14.1636L13.2727 12L15.4364 9.83633C15.7879 9.48486 15.7879 8.91501 15.4364 8.56354C15.0849 8.21206 14.5151 8.21206 14.1636 8.56353L11.9999 10.7272L9.83626 8.56353C9.48478 8.21206 8.91493 8.21206 8.56347 8.56354Z"
    fill="#777876"
  />
</svg>
