<svg viewBox="0 0 17 18" fill="none" xmlns="http://www.w3.org/2000/svg">
  <path
    d="M8 1C9.05057 1 10.0909 1.20693 11.0615 1.60896C12.0321 2.011 12.914 2.60028 13.6569 3.34315C14.3997 4.08602 14.989 4.96793 15.391 5.93853C15.7931 6.90914 16 7.94943 16 9C16 10.0506 15.7931 11.0909 15.391 12.0615C14.989 13.0321 14.3997 13.914 13.6568 14.6569C12.914 15.3997 12.0321 15.989 11.0615 16.391C10.0909 16.7931 9.05057 17 7.99999 17C6.94942 17 5.90913 16.7931 4.93853 16.391C3.96792 15.989 3.08601 15.3997 2.34314 14.6569"
    stroke-width="2"
    stroke-linecap="square"
    stroke-linejoin="round"
  />
</svg>
